<?xml version="1.0" encoding="UTF-8"?><svg id="Layer_1" xmlns="http://www.w3.org/2000/svg" viewBox="0 0 2485.57 900.55"><defs><style>.cls-1{fill:#f0f0f0;}.cls-2{fill:#fff;}.cls-3{fill:#c2c2c2;}.cls-4{fill:#b3b3b2;}.cls-5{fill:#666665;}.cls-6{fill:#858584;}.cls-7{fill:#d1d1d1;}.cls-8{fill:#e0e0e0;}.cls-9{fill:#1d1d1b;}.cls-10{fill:#a3a3a3;}.cls-11{fill:#949493;}.cls-12{fill:#575756;}.cls-13{fill:#767675;}</style></defs><g><path class="cls-2" d="M84.6,155.49c78.98,49.74,148.4,114.01,204.78,188.36,53.85,71,94.06,150.78,133.9,230.14,39.88,79.43,79.83,159.78,133.95,230.72,24.56,32.18,51.46,63.64,88.58,81.55,37.03,17.87,80.13,18.45,118.63,4.76,21.06-7.49,40.79-18.99,60.09-30.14,21-12.14,41.46-25.2,61.32-39.12,38.8-27.2,75.24-57.68,109.07-90.85,69.51-68.17,129.93-144.72,201.14-211.28,136.02-127.13,268.67-264.73,433.85-354.47,34.41-18.69,69.66-33.58,107.47-43.89s77.04-17.23,116.14-22.2c66.7-8.48,133.99-11.46,201.19-12.08,10.84-.1,21.69-.13,32.53-.17,1.61,0,1.61-2.51,0-2.5-59.12,.21-118.21,1.41-177.16,6.34-74.03,6.2-149.8,16.61-219.61,43.08-37.61,14.26-73.07,34.52-107.2,55.64-38,23.51-74.39,49.55-109.57,77.08-73.99,57.89-142.61,122.23-210.82,186.72-34.1,32.25-69.09,63.75-102.32,96.89-34.58,34.48-66.75,71.24-99.49,107.44-65.64,72.56-135.72,139.02-219.55,190.35-41.16,25.21-84.53,51.04-134.35,50.26-46.1-.72-86.27-24.02-116.95-57.35-59.87-65.02-102.43-145.19-142.27-223.38-40.17-78.84-77.84-159.4-126.93-233.26-48.93-73.63-109.82-139.31-180.25-192.81-17.74-13.47-36.08-26.11-54.93-37.98-1.37-.86-2.62,1.3-1.26,2.16h0Z"/><path class="cls-1" d="M79.1,170.53c75.59,42.21,143.89,97.07,200.9,162.27,61.09,69.86,106.22,150.63,149.6,232.15s82.52,156.7,137.62,225.95c24.75,31.11,52.51,60.26,90,75.61,38.82,15.89,82.53,13.24,121.01-2.27,81.03-32.65,155.57-81.46,220.26-139.89,68.13-61.54,128.77-130.38,199.76-188.86,144.34-118.9,282.56-247.51,451.04-332.31,67.25-33.85,140.75-50.24,215.02-60.06,63.99-8.46,128.8-12.32,193.34-11.69,10.6,.1,21.19,.36,31.78,.84,1.61,.07,1.6-2.43,0-2.5-56.84-2.59-114.14-.2-170.78,4.87-70.96,6.34-142.83,17.09-210.37,40.48-37.7,13.06-73.13,31.74-107.72,51.45-40.78,23.23-80.29,48.55-118.52,75.77-74.01,52.68-143.25,111.61-212.55,170.23-34.8,29.43-70.59,57.83-104.87,87.86-34.04,29.82-65.74,62.17-97.64,94.23s-64.84,64.73-100.23,93.82-73.61,54.95-113.83,77.06c-39.79,21.88-83.91,46.37-130.08,49.03-45.18,2.6-86.15-15.51-118.78-46.04-32.08-30.01-57.89-67.93-81.61-104.68s-46.09-76.84-67.3-116.29c-43.38-80.68-84.6-162.97-140.41-236.05-50.46-66.08-111.33-123.71-180.38-170.07-17.53-11.77-35.57-22.76-54.01-33.06-1.41-.79-2.67,1.37-1.26,2.16h0Z"/><path class="cls-8" d="M73.6,185.57c77.03,37.34,147.86,87.32,207.68,148.66,62.91,64.51,109.66,140.63,153.6,218.72,42.13,74.85,83.37,150.99,137.63,217.97,24.32,30.02,51.94,57.67,88.32,72.51,39.73,16.2,82.27,12.49,122.03-1.27,80.14-27.74,153.29-68.56,218.69-122.57,34.68-28.65,67.46-59.49,101.03-89.4,34-30.29,69.4-57.98,106.24-84.7,71.99-52.2,141.81-107.35,214.52-158.57,74.89-52.76,153.46-101.02,236.14-140.66,65.73-31.51,137.11-47.96,208.98-58.26,63.49-9.1,128.22-14.03,192.38-12.09,10.27,.31,20.54,.85,30.77,1.81,1.6,.15,1.59-2.35,0-2.5-55.83-5.23-113.01-1.72-168.68,3.73-69.44,6.8-139.45,18.32-205.67,40.8-37.14,12.6-72.19,30.18-106.71,48.66-40.17,21.5-79.65,44.19-118,68.8-74.06,47.53-143.99,101.01-214.32,153.8-36.13,27.12-73.26,52.96-109.19,80.33-34.28,26.11-66.22,55.1-98.14,84-33.53,30.35-67.08,60.85-103.39,87.88-34.92,26-72.4,48.42-111.82,66.89-20.24,9.48-40.96,17.94-61.97,25.55-22.27,8.07-44.58,15.11-68.44,16.11-44.79,1.88-85.33-16.14-117.88-46.14-31.55-29.08-56.91-65.91-80.47-101.53-24.09-36.42-45.92-74.27-67.37-112.29-42.65-75.62-84.14-151.88-140.01-218.83-53.68-64.32-118.83-118.66-191.07-160.99-17.49-10.25-35.4-19.73-53.64-28.57-1.44-.7-2.71,1.46-1.26,2.16h0Z"/><path class="cls-7" d="M68.41,200.73c79.76,32.6,154.48,78.16,217.8,136.81,64.01,59.29,111.37,130.8,155.59,205.36s84.36,145.9,138.25,210.66c23.85,28.66,51.93,54.55,87.23,68.12,39.86,15.32,80.4,10.71,120.64-.08,38.86-10.42,76.97-23.62,113.23-41.14,38.89-18.79,74.82-42.62,109.16-68.71,33.39-25.37,65.44-52.44,98.41-78.35,35.26-27.72,72.19-51.82,110.04-75.76,70.93-44.86,139.83-92.84,210.83-137.59,74.92-47.21,152.82-89.99,233.12-127.38,65.39-30.44,135.31-48.03,206.38-59.24,62.75-9.9,127.18-15.99,190.76-13.21,11.24,.49,22.48,1.32,33.63,2.89,1.57,.22,2.25-2.19,.66-2.41-54.32-7.65-111.05-3.34-165.32,2.38-69.24,7.3-138.76,19.79-204.85,42.08-36.35,12.26-70.89,28.87-105.1,46.11-39.58,19.94-78.95,40.22-117.36,62.37-72.94,42.05-142.58,89.36-212.81,135.7-36.49,24.08-73.62,47.07-110.41,70.65-35.47,22.73-68.47,49.07-101.21,75.51-68.43,55.27-136.49,109.15-219.43,141.06-19.21,7.39-38.81,13.76-58.61,19.37-21.32,6.04-42.89,12.07-65.12,13.31-44.76,2.49-86.02-13.97-119.44-43.19-32.13-28.09-57.62-64.51-81.49-99.61-24.18-35.55-46.27-72.46-68.14-109.47-42.9-72.59-85.14-145.33-142.94-207.36s-124.92-110.1-199.22-147.12c-17.56-8.75-35.45-16.76-53.61-24.18-1.49-.61-2.14,1.81-.66,2.41h0Z"/><path class="cls-3" d="M62.91,215.77c80.82,26.7,158.13,65.9,224.28,119.82,32.15,26.2,61.54,55.77,87.6,88.03,26.76,33.11,49.56,69.24,72.08,105.3,43.62,69.87,85.27,141.66,138.67,204.73,23.89,28.21,52.77,53.4,87.86,66.41,39.43,14.62,79.35,10.31,119.7,2.82,38.83-7.22,77.08-17.36,113.55-32.67,37.9-15.92,72.97-37.32,106.85-60.44,35.51-24.24,69.82-50.18,105.38-74.35,35.4-24.07,72.67-43.87,110.2-64.32,70.02-38.15,138.24-79.46,207.88-118.28,74.46-41.5,151.19-78.85,228.93-113.8,65.95-29.65,135.52-48.4,206.7-60.51,62.33-10.61,126.92-17.83,190.22-13.8,11.01,.7,21.99,1.85,32.84,3.88,1.57,.29,2.25-2.11,.66-2.41-53.54-10.01-110.83-4.84-164.48,1.36-69.01,7.98-138.07,21.59-203.91,43.99-35.77,12.17-69.99,28.14-104.1,44.29-39.33,18.62-78.8,36.82-117.46,56.81-70.56,36.47-138.77,77.16-207.67,116.61-36.53,20.91-73.35,41.24-110.56,60.92-37.43,19.8-72.31,43.87-106.73,68.43-69.34,49.48-137.56,100.04-220.04,125.35-38.86,11.92-81.56,22.32-122.28,23.8-45.03,1.65-86.43-14.61-120.35-43.73-31.9-27.39-57.15-62.97-81.02-97.29-23.93-34.4-45.98-70.06-68-105.7-43.21-69.93-86.22-139.58-146.16-196.7-58.96-56.19-129.34-99.27-204.41-130.39-18.25-7.57-36.81-14.37-55.57-20.57-1.53-.51-2.19,1.91-.66,2.41h0Z"/><path class="cls-4" d="M57.41,230.81c80.05,19.96,157.95,51.4,226.05,98.45,33.93,23.44,65.27,50.74,92.72,81.54,27.78,31.18,51.25,66.1,74.17,100.92,44.43,67.51,85.82,137.65,138.43,199.31,23.34,27.37,51.48,51.94,85.14,65.61,39.83,16.18,81.3,13.75,123.16,9.59,38.05-3.78,75.73-10.61,111.86-23.39,38-13.44,73.34-33.08,107.71-53.92,36.36-22.05,71.77-45.64,108.52-67.06,36.36-21.19,74.6-37.63,112.76-55.21,67.93-31.29,134.39-65.57,201.59-98.37,74.3-36.26,150.26-68.62,226.07-101.55,66.68-28.97,136-49.19,207.45-62.48,62.22-11.57,127.25-20.18,190.65-15.23,11.49,.9,22.92,2.39,34.15,5,1.57,.36,2.23-2.05,.66-2.41-53.67-12.46-112.64-6.16-166.6,.83-68.76,8.9-137.29,23.87-202.88,46.48-35.33,12.18-69.32,27.72-103.5,42.74-38.94,17.12-78.27,33.28-116.93,51.06-68.1,31.32-134.69,65.72-202.05,98.58-36.51,17.81-73.29,35.08-110.44,51.51-37.8,16.71-73.42,37.04-108.48,58.84-71.65,44.55-141.87,93.3-225.52,112.03-39.12,8.76-81.19,14.15-121.33,13.58-44.42-.63-85.02-17.08-118.56-45.89-31.63-27.18-56.76-62.02-80.7-95.89-23.91-33.84-46.14-68.81-68.59-103.62-43.49-67.42-87.57-134.01-149.89-185.71-61.14-50.72-133.12-86.98-208.41-111.56-18.65-6.09-37.52-11.43-56.55-16.18-1.56-.39-2.23,2.02-.66,2.41h0Z"/><path class="cls-10" d="M51.91,245.85c80.37,13.32,160.03,37.46,230.66,78.74,34.39,20.1,66.5,44.22,94.52,72.58s52.28,62,75.32,95.16c46.35,66.71,88.17,137.52,141.92,198.76,23.49,26.76,51.59,50.77,84.79,64.45,18.75,7.72,38.67,11.11,58.7,13.47s39.66,4.41,59.62,4.8c80.49,1.58,152.97-27.75,222.91-64.94,36.71-19.52,72.73-40.37,110.06-58.74,37.54-18.47,76.9-31.78,115.94-46.61,67.17-25.51,133.18-53.83,199.44-81.59,73.37-30.74,147.99-58.24,221.49-88.6,67.35-27.82,136.37-49.29,207.85-63.63,61.63-12.36,126.62-22.18,189.61-16.36,11.91,1.1,23.74,2.96,35.28,6.15,1.55,.43,2.22-1.98,.66-2.41-52.57-14.53-111.7-7.67-164.82-.27-69.02,9.62-137.55,25.89-203.42,48.64-37.54,12.96-73.78,29.22-110.67,43.87-38.7,15.37-77.79,29.68-116.39,45.33-65.05,26.36-129.34,54.56-194.42,80.86-36.36,14.69-72.96,28.77-109.82,42.14-38.04,13.79-74.18,30.79-109.85,49.87-72.49,38.78-144.49,84.24-226.71,98.79-40.38,7.15-80.73,5.39-121.28,.83-23.31-2.62-46.43-6.24-67.99-15.93-18.08-8.13-34.62-19.42-49.61-32.34-31.08-26.79-55.93-60.67-79.77-93.81-23.85-33.14-46.2-67.32-68.98-101.19-43.6-64.8-88.4-128.45-152.33-174.86-63.68-46.23-138.22-75.88-214.43-94.03-19.06-4.54-38.28-8.33-57.61-11.54-1.57-.26-2.25,2.15-.66,2.41h0Z"/><path class="cls-11" d="M46.75,260.94c81.26,6.44,163.26,23.35,236.88,59.34,35.98,17.59,69.83,39.76,99.01,67.29s53.3,59.7,76.61,91.83c46.76,64.44,88.18,134.04,141.95,193.08,24.62,27.03,53.42,50.47,87.43,64.54,36.11,14.95,76.22,18.27,114.82,21.39,36.89,2.98,73.82,1.92,109.94-6.68,38.84-9.24,75.74-25.79,111.89-42.4,38.09-17.51,75.72-36.15,114.69-51.67,37.5-14.94,76.63-24.77,115.22-36.42,64.37-19.43,127.94-41.21,191.36-63.51,73.3-25.78,147.72-49.05,220.15-77.17,67.66-26.28,135.95-49.07,206.96-64.58,62.35-13.62,128.92-25.29,192.92-18.27,12.07,1.32,24.02,3.54,35.6,7.24,1.54,.49,2.19-1.92,.66-2.41-52.76-16.87-113.59-9.02-167.16-.74-69.81,10.79-138.81,28.79-205.46,52.12-37.48,13.12-73.95,28.94-111.49,41.89s-75.84,25.55-113.63,38.73c-63.74,22.24-127.24,45.14-191.5,65.86-35.68,11.5-71.55,22.37-107.59,32.7-38.2,10.95-74.79,24.75-111,41.12-74.97,33.9-150.05,77.64-233.93,82.73-39.53,2.4-79.98-2.04-119.04-7.95-41.76-6.32-79.67-23.81-111.62-51.38s-56.36-60.59-80.6-93.75-46.35-66.15-69.55-99.21c-44.28-63.09-90.56-124.49-157.13-165.52s-144.91-63.74-222.61-74.81c-17.88-2.55-35.83-4.47-53.83-5.89-1.6-.13-1.6,2.37,0,2.5h0Z"/><path class="cls-6" d="M41.25,275.98c80.14-.81,162.11,8.06,237.43,36.74,37.42,14.25,73.11,33.62,103.84,59.45,30.3,25.47,55.56,57.07,79.51,88.39,48.37,63.26,90.12,132.56,144.21,191.27,25.73,27.93,55.53,51.97,90.55,67.2,34.93,15.2,74.27,22.24,111.71,28.42,34.99,5.78,70.25,6.97,105.27,.64,39.52-7.15,77.59-21.99,114.9-36.47,38.05-14.77,75.83-30.4,114.75-42.82,37.32-11.91,75.92-18.79,114.09-27.37,63.78-14.34,127.06-30.59,189.94-48.48,33.31-9.47,66.53-19.24,99.75-28.98,38.64-11.33,77.56-21.86,115.51-35.39,69.77-24.87,139-49.66,211.23-66.66,62.62-14.74,130.27-28.1,194.8-19.85,12.15,1.55,24.13,4.15,35.65,8.33,1.52,.55,2.17-1.87,.66-2.41-52.58-19.05-114.51-10.49-168.22-1.42-70.21,11.86-139.25,31.42-206.41,54.89-37.02,12.94-73.46,27.75-111.1,38.83-38.1,11.22-76.25,22.31-114.37,33.45-62.08,18.13-124.31,35.75-187.16,51.04-36.05,8.77-72.26,16.91-108.54,24.67-39.43,8.43-77.33,19.81-115.07,34.04-74.54,28.1-151.06,67.48-232.53,66.55-39.27-.45-77.83-9.42-115.95-18.03-41.22-9.31-78.48-27.45-110.4-55.27-31.33-27.3-56.79-60.79-81.45-94.02-24.18-32.58-47.21-66-71.2-98.72-22.48-30.67-45.82-60.86-71.98-88.51s-55.23-48.93-88.14-65.95c-68.85-35.62-147.1-50.48-223.94-54.81-19.09-1.08-38.21-1.43-57.33-1.24-1.61,.02-1.61,2.52,0,2.5h0Z"/><path class="cls-13" d="M35.75,291.02c80.68-8.28,164.5-7,242.85,15.84,37.12,10.82,72.99,26.89,104.09,50.08,30.81,22.98,56.6,52.91,80.66,82.65,50.6,62.54,93,132.09,147.63,191.34,25.97,28.16,55.6,52.81,90.11,69.8,33.94,16.71,72.25,27.71,108.85,36.98,34.25,8.67,69.1,12.07,104.26,7.5,39.35-5.11,77.76-17.62,115.45-29.59,38.55-12.25,76.94-25.24,116.25-34.89s77.77-13.66,116.78-19.57c62.13-9.41,124.02-20.14,185.44-33.47,31.98-6.94,63.83-14.44,95.63-22.14,38.48-9.32,77.43-17.79,115.2-29.71,71.41-22.53,141.25-48.95,213.95-67.38,63.55-16.11,133.32-31.78,199.12-21.82,11.83,1.79,23.44,4.74,34.54,9.22,1.49,.6,2.14-1.81,.66-2.41-52.91-21.39-116.64-11.75-170.96-1.62-70.59,13.16-139.59,34.44-207.41,57.73-37.91,13.02-75.58,26.35-114.51,36.04-37.2,9.26-74.41,18.46-111.74,27.2-60.12,14.09-120.57,26.46-181.48,36.6-36.17,6.02-72.44,11.44-108.74,16.67-39.63,5.72-77.92,14.28-116.25,25.89-38.71,11.72-76.93,25.05-115.86,36.03-38.66,10.9-77.95,19.3-118.34,16.18-38.69-2.99-75.79-15.42-112.44-27.38-40.78-13.3-77.19-31.88-109.39-60.57-60.98-54.34-104.49-126.81-153.72-191.28-22.85-29.92-46.78-59.21-73.8-85.49-26.29-25.58-56.85-45.46-90.59-59.82-72.04-30.65-152.8-37.96-230.35-35.08-18.67,.69-37.3,2.07-55.88,3.98-1.58,.16-1.6,2.66,0,2.5h0Z"/><path class="cls-5" d="M30.59,306.01c81.01-16.07,166.78-22.55,248.19-5.57,38.04,7.94,75.31,21.54,107.54,43.56,32.03,21.89,59.02,51.6,83.85,81.14,51.3,61,93.86,129.27,148.07,187.84,26.63,28.77,56.62,54.46,91.24,73.15,32.46,17.53,68.54,32.17,103.56,43.82,33.02,10.99,67.18,15.94,101.94,13.04,37.92-3.16,75.37-12.8,112.19-21.98,38.51-9.6,76.91-19.91,115.98-27.04,39.95-7.3,80.59-9.13,121.01-12.39,60.88-4.9,121.71-10.4,182.15-19.35,31-4.59,61.88-9.99,92.67-15.82,38.34-7.26,77.21-13.91,114.97-23.81,72.42-18.98,142.36-46.7,214.6-66.52,64.19-17.6,135.32-35.83,202.28-25.58,12.95,1.98,25.63,5.35,37.61,10.68,1.46,.65,2.73-1.5,1.26-2.16-53.02-23.61-117.72-13.23-172.49-2.11-71.02,14.41-139.96,37.48-208.67,60.14-39.34,12.98-78.48,24.49-119.07,32.83-36.23,7.44-72.52,14.63-108.96,21.02-59.71,10.48-119.76,17.97-180.13,23.42-36.73,3.32-73.51,6.16-110.28,9-39.18,3.03-77.29,9.41-115.54,18.41-39.18,9.21-77.98,20-117.33,28.5-39.25,8.48-79.05,14.69-119.11,8.4-37.59-5.9-72.76-21.23-107.44-36.23-38.63-16.71-73.34-36.35-104.55-65.02-59.47-54.64-103.07-124.6-152.79-187.65-23.79-30.17-48.89-59.6-77.52-85.34s-58.76-42.78-93.58-54.71c-75.91-26.01-159.71-25.44-238.42-15.04-18.07,2.39-36.04,5.41-53.91,8.96-1.58,.31-.91,2.72,.66,2.41h0Z"/><path class="cls-12" d="M25.09,321.05c73.7-21.96,151.89-35.33,228.96-30.07,38.69,2.64,77.65,10.37,112.89,27,33.22,15.69,61.13,40.23,86.51,66.43,52.82,54.51,94.78,118.26,142.72,176.87,22.95,28.06,47.29,55.23,74.93,78.78,28.85,24.59,61.53,42.12,94.88,59.8,33.64,17.83,68.39,34.03,106.43,39.5,40.56,5.83,81.82-.7,121.86-7.48,45.16-7.65,89.97-17.37,135.37-23.59,45.26-6.2,90.67-5.86,136.26-6.43,68.7-.86,137.42-1.71,205.85-8.41,36.88-3.61,73.62-8.63,110.25-14.24,34.83-5.34,69.6-10.49,103.64-19.74,65.48-17.8,129.17-41.58,194.47-60.04,61.1-17.27,129.36-35.55,193.21-24.53,12.93,2.23,25.5,5.97,37.31,11.72,1.44,.7,2.71-1.45,1.26-2.16-51.68-25.19-115.64-14.87-169.51-3.31-68.91,14.78-135.55,38.32-202.64,59.54-28.48,9.01-57.14,17.94-86.4,24.09-40.73,8.56-82.45,13.97-123.7,19.44-66.99,8.87-134.12,12.94-201.65,14.22-42.21,.8-84.44,1.14-126.65,1.76s-87.07,7.3-130.16,15.11c-45.68,8.29-91.3,18.09-137.59,22.39-43.27,4.02-84.59-2.28-124.49-19.5-18.48-7.98-36.29-17.45-53.99-27.01s-35.6-18.66-52.24-29.95c-30.56-20.73-57.19-46.76-81.63-74.31-50.79-57.25-92.73-121.66-143.07-179.29-23.11-26.46-48.15-52.1-76.86-72.55-29.25-20.83-63.64-33.44-98.69-40.36-74.51-14.7-152.96-6.47-226.43,10.25-17.41,3.96-34.66,8.53-51.77,13.63-1.54,.46-.88,2.87,.66,2.41h0Z"/></g><g><path class="cls-9" d="M90.34,466.19c24.07-48.67,66.47-90.14,104.87-127.55,49.75-48.47,103.71-93.99,162.69-130.87,23.53-14.71,48.33-28.54,74.81-37.17,17.78-5.79,38.45-10.18,56.29-2.33,15.37,6.76,27.81,19.71,38.53,32.27,15.24,17.87,28.13,37.72,40.15,57.85,63.52,106.43,107.94,224.6,152.92,339.68,17.41,44.55,34.17,89.42,52.89,133.45,19.65,46.2,49.63,91.22,89.62,122.09,125.52,96.88,248.01-85.69,304.12-176.96,29.48-47.96,58.93-97.18,82.23-148.47,29.15-64.17,52.1-130.97,78.25-196.37,27.33-68.35,57.53-136.75,100.34-197.01,39.54-55.65,96.27-111.77,165.11-127.31,77.61-17.51,168.46,8.98,228.97,59.19,32.73,27.16,62.37,58.29,91.73,88.98,93.9,98.11,183.1,200.84,271.02,304.3,87.94,103.48,174.9,208.11,257.02,316.3,14.01,18.46,27.84,37.05,41.27,55.93,.92,1.3,3.09,.05,2.16-1.26-70.92-99.69-149.38-194.28-227.61-288.25-92.81-111.49-187.46-221.6-285.6-328.43-36.6-39.84-73.61-79.47-112.6-117-12.51-12.04-25.22-23.97-38.74-34.9-28.25-22.84-61.51-39.08-96.23-49.46-38.4-11.47-79.9-16.4-119.69-10.16-34.56,5.42-66.1,21.91-94.12,42.38-55.26,40.36-95.33,97.93-127.23,157.66-66.48,124.46-97.93,265.02-168.67,387.19-31.52,54.44-62.11,109.29-99.71,159.9-38.82,52.26-91.44,115.33-159.51,126.9-44.1,7.49-83.39-14.21-113.16-45.2-20.72-21.58-40.75-47.25-54.41-74.03-18.19-35.65-31.52-74.13-46.03-111.35-45.12-115.73-89.07-232.87-146.67-343.13-21.7-41.54-45.42-86.25-79.81-118.91-10.17-9.66-22.11-18.74-36.17-21.49-18.88-3.69-39.08,2.19-56.61,8.84-57.55,21.86-109.11,61.11-156.23,99.89-50.95,41.93-99.71,87.98-141.39,139.25-13.77,16.94-27.26,34.68-36.98,54.32-.71,1.44,1.44,2.71,2.16,1.26h0Z"/><path class="cls-9" d="M82.34,454.19c22.93-40.36,58.3-74.65,91.74-106.26,43.96-41.56,91.29-80.09,141.91-113.28,38.29-25.1,84.28-54.55,131.29-57.85,31.24-2.19,54.32,18.86,73.15,41.71s33.97,48.11,48.36,73.62c61.2,108.5,107.07,225.47,154.86,340.25,15.51,37.26,29.96,75.74,49.17,111.32,11.89,22.01,29.13,42.03,46.53,59.82,24.61,25.16,54.24,47.55,88.56,57.19,55.07,15.46,105.24-12.51,145.4-48.33,45.27-40.38,81.43-90.53,114.87-140.8,31.63-47.56,64.17-95.24,89.26-146.62,37.66-77.1,66.27-158.31,105.21-234.82,34.4-67.58,77.9-133.9,140.58-178.43,30.03-21.33,63.86-38.06,100.8-42.22s75.02,1,110.56,11.68c91.51,27.5,158.4,102.04,223.83,167.76,85.55,85.94,168.06,174.93,249.61,264.66,75.22,82.77,149.66,166.32,222.14,251.5,12.46,14.65,24.86,29.35,37.11,44.18,1.03,1.24,2.79-.54,1.77-1.77-65.31-79.02-133.43-155.78-201.86-232.09-83.73-93.38-168.59-185.82-255.78-275.98-36.24-37.47-72.87-74.61-110.67-110.51-25.15-23.89-50.67-48.21-78.91-68.49-55.29-39.72-129.87-61.09-197.81-53.43-67.86,7.65-126.81,54.79-169.22,105.66-104.69,125.56-132.92,293.42-223.1,427.36-29.39,43.65-56.42,88.72-88.33,130.67-36.73,48.29-81.37,101.5-139.63,123.88-73.22,28.14-141.53-23.82-185.45-78.66-25.03-31.25-39.64-66.83-55.16-103.44-48.31-113.91-93.16-229.59-149.75-339.77-12.87-25.07-26.39-49.86-41.37-73.73-16.67-26.55-35.36-54.59-61.46-72.69-35.04-24.3-78.81-6.52-113.24,10.14-50.96,24.65-97.62,58.54-141.44,94.1-43.66,35.43-85.72,73.86-122.27,116.68-12.24,14.34-24.09,29.31-33.43,45.74-.8,1.4,1.36,2.66,2.16,1.26h0Z"/><path class="cls-9" d="M74.34,442.19c24.37-37.6,59-69.31,92.41-98.69,43.12-37.92,89.29-72.89,138.41-102.69,38.01-23.06,82.72-49.01,128.24-51.61,57.21-3.26,93.04,61.98,118.4,104.9,58.6,99.21,103.64,206.4,150.28,311.55,17.04,38.42,33.44,77.42,53.08,114.61,24.69,46.72,68.79,85.8,115.48,109.62,26.84,13.69,57.76,23.25,88.16,19.33,23.83-3.07,46.09-13.76,65.94-26.91,47.8-31.64,85.79-77.21,120.43-122.25,15.98-20.78,31.25-42.07,46.68-63.25,15.4-21.12,32.05-41.25,46.1-63.33,43.37-68.17,72.99-144.12,110-215.71,32.47-62.81,72.24-123.89,128.09-168.41,27.27-21.74,59.49-41.11,93.48-49.93s71.08-6.96,105.51-.09c51.81,10.33,98.3,33.1,139.65,65.42,32.88,25.7,64.02,53.66,94.76,81.84,83.44,76.48,163.75,156.4,243.54,236.65,73.98,74.4,147.17,149.58,220.57,224.56,12.52,12.79,25.05,25.57,37.63,38.3,1.13,1.15,2.9-.62,1.77-1.77-67.13-67.94-133.51-136.61-200.56-204.62-82.69-83.88-165.85-167.37-251.36-248.39-35.36-33.5-71.1-66.68-108.13-98.34-26.4-22.58-53.47-45.56-84.04-62.37-56.5-31.07-128.3-48.78-192.41-35.37-64.41,13.48-120.58,61.52-160.88,111.36-47.8,59.1-79.7,128.52-112.12,196.71-17.05,35.87-34.14,71.83-53.99,106.26-15.24,26.44-33.32,50.24-51.46,74.65-33.27,44.76-64.95,90.66-102.65,131.92-36.91,40.41-85.85,87.76-143.8,91.27-37.09,2.25-73.76-13.97-104.1-33.94-30.47-20.05-59.12-46.4-79.76-76.65-19.14-28.06-31.81-61.6-45.65-92.42-47.55-105.86-92.39-213.34-147.75-315.46-12.18-22.47-24.91-44.69-38.98-66.04-15.93-24.18-33.87-49.14-58.62-64.92-34.85-22.21-77.32-7.02-111.83,8.28-49.96,22.14-96.11,53.25-139.51,86.18s-83.11,67.01-119.17,106.08c-12.29,13.31-24.15,27.2-34.02,42.43-.88,1.35,1.29,2.61,2.16,1.26h0Z"/><path class="cls-9" d="M66.34,430.19c25.89-35.19,60.36-64.65,94.14-91.97,42.67-34.5,88.12-66.09,136.23-92.54,37.73-20.74,82.06-43.7,126.23-44.14,54.33-.54,88.54,56.81,113.81,97.91,56.17,91.32,100.48,189.95,146.27,286.7,17.84,37.7,35.27,75.76,55.12,112.46,21.18,39.14,53.22,69.47,90.53,93.56,45.33,29.27,104.22,54.45,158.21,35.9,49.54-17.02,90.12-56.79,125.02-94.33,33.11-35.63,61.84-75.06,94.95-110.64,47.84-51.41,79.73-114.79,112.76-176.14,32.77-60.87,67.09-121.25,117.69-169.32,48.42-45.99,110.33-80.4,178.53-78.56,58.48,1.58,117.66,20.82,166.65,52.61,32.2,20.89,62.33,45.06,92.02,69.33,82.61,67.52,161.77,139.27,240.87,210.83,73.51,66.51,146.26,133.96,221.31,198.73,12.67,10.93,25.43,21.76,38.42,32.31,1.24,1.01,3.02-.75,1.77-1.77-69.92-56.79-135.83-118.68-202.51-179.18-82.25-74.62-164.32-149.52-248.87-221.55-33.86-28.85-68.09-57.37-103.71-84.04-32.41-24.27-65.59-45.54-103.92-59.47-59.96-21.78-127.31-29.86-187.27-4.39-58.2,24.73-105.73,67.96-143.35,118.12-43.92,58.56-74.05,125.97-110.36,189.2-18.04,31.41-37.41,62.44-61.2,89.86-14.73,16.98-29.82,33.52-44.15,50.87-35.84,43.41-72.02,87.49-115.69,123.38-21.49,17.66-45.37,33.9-72.04,42.53-27.36,8.85-55.29,6.04-82.46-2.32-33.76-10.39-65.38-28.18-93.36-49.59-21.15-16.18-41.99-35.17-56.45-57.76-18.93-29.56-33.27-62.47-48.38-94.06-46.91-98.13-91.48-197.76-145.28-292.39-23.68-41.65-50.47-92.72-92.11-118.87-35.33-22.19-77.16-9.84-113.07,4.55-47.83,19.17-92.46,46.53-134.64,75.89-41.55,28.92-81.65,60.64-117.7,96.25-12.92,12.77-25.4,26.11-36.18,40.76-.95,1.3,1.21,2.55,2.16,1.26h0Z"/><path class="cls-9" d="M58.14,418.44c27.48-33.03,62.16-60.49,96.62-85.81,42.2-31,86.9-59.14,133.97-82.16,37.21-18.2,80.59-37.69,123-36.46,51.48,1.49,84.09,50.57,109.34,89.68,53.81,83.36,97.18,173.52,141.86,261.95,18.72,37.04,37.14,74.31,57.4,110.54,18.05,32.27,39.86,57.82,70.17,79.87,44.21,32.17,100.15,59.7,155.56,63.07,46.88,2.85,89.44-25.85,124.1-54.28,40.28-33.05,74.86-72.06,111.15-109.25,17.46-17.89,36.66-33.88,53.09-52.77,21.23-24.4,39.53-51.21,56.93-78.41,35.39-55.3,66.49-113.97,111.91-162.01,42.13-44.56,99.22-84.99,160.91-95.35,62.36-10.47,131.55,7.27,187.16,35.48,30.62,15.53,59.14,35.4,87.1,55.22,82.29,58.34,160.75,122.09,239.58,184.96,72.96,58.18,145.37,117.66,221.88,171.18,12.9,9.02,25.96,17.82,39.4,26.02,1.38,.84,2.63-1.32,1.26-2.16-73.31-44.74-140.21-100.94-207.31-154.23-81.27-64.54-161.78-130.13-244.86-192.34-70.52-52.81-141.4-105.22-229.63-122.96-29.05-5.84-59.28-8.46-88.75-4.54-29.44,3.92-57.9,15.93-83.73,30.25-51.85,28.76-94.12,71.74-127.95,120-39.65,56.57-70.69,118.83-113.89,172.99-17.17,21.52-37.23,39.34-56.66,58.63-16.98,16.85-33.13,34.51-49.74,51.72-37.61,38.99-77.79,79.73-126.82,104.18-22.75,11.34-46.62,17.28-72.06,14.61-29.99-3.15-59.32-13.55-86.46-26.3-44.91-21.09-91.19-51.1-117.97-93.97-18.96-30.34-34.77-62.79-50.98-94.64-46.03-90.41-90.1-182.19-142.26-269.31-21.95-36.66-45.9-79.05-81.75-103.79-35.03-24.18-75.05-17.17-113.05-4.45-46.64,15.61-90.56,39.56-132.15,65.53-41.68,26.02-81.93,54.99-118.66,87.69-13.97,12.44-27.5,25.48-39.47,39.88-1.02,1.23,.74,3.01,1.77,1.77h0Z"/><path class="cls-9" d="M50.14,406.44c29.12-31.03,64.39-56.48,99.81-79.78,42.49-27.95,87.34-52.99,134.31-72.6,36.14-15.09,77.63-30.51,117.5-27.38,48.61,3.81,79.56,45.75,104.73,82.9,51.57,76.11,94.04,158.47,137.67,239.25,19.06,35.28,37.92,70.71,58.13,105.35,15.99,27.4,32.32,51.32,57.55,71.35,39.9,31.68,88.33,54.54,137.22,68.41,20.87,5.92,43.4,11.05,65.26,9.98,20.53-1,40.33-8.26,58.52-17.46,45.2-22.86,83.69-57.88,121.08-91.48,16.56-14.88,32.9-30.14,50.42-43.91,21.98-17.28,42.86-34.43,61.65-55.33,41.32-45.93,72.5-99.62,112.4-146.6,38.62-45.48,87.05-82.47,143.02-103.83,99.18-37.86,204.96,.85,291.7,52.16,81.19,48.02,158.32,102.89,236.15,156.08,73.89,50.5,147.78,103.04,227.11,144.82,12.77,6.73,25.75,13.06,39.13,18.49,1.49,.61,2.14-1.81,.66-2.41-33.15-13.47-64.32-31.93-94.79-50.51-39.53-24.1-78.11-49.72-116.49-75.6-81.76-55.14-162.18-112.37-245.43-165.28-77.53-49.28-158.83-93.81-253.37-95.83-56.85-1.21-111.74,21.93-157.73,54.17-46.82,32.82-81.17,76.29-114.22,122.25-37.59,52.28-75.33,103.07-127.08,142.2-36.93,27.91-69.2,61.69-105.13,90.86-37.27,30.26-84.31,66.03-134.91,64.79s-104.84-23.56-149.18-48.47c-35.9-20.17-67.36-44.99-89.3-80.06-19.26-30.78-36.35-62.95-53.66-94.84-44.69-82.37-87.85-165.94-138.07-245.14-20.38-32.15-42.29-68.47-74.08-90.55-34.72-24.12-73.91-20.57-112.71-9.9-45.67,12.56-89.18,33.39-130.45,56.33-41.29,22.95-81.24,48.88-118.08,78.49-14.43,11.59-28.41,23.82-41.08,37.33-1.1,1.17,.66,2.94,1.77,1.77h0Z"/><path class="cls-9" d="M42.14,394.44c30.68-29.04,66.82-52.47,103.27-73.55,42.56-24.62,87.28-46.18,133.8-62.21,35.89-12.37,77.02-24.57,115.37-18.74,45.23,6.88,73.9,42.32,98.77,77.23,49.07,68.87,90.35,143.38,132.59,216.52,19.07,33.02,38.01,66.13,57.91,98.66,14.05,22.95,28.03,46.57,48.22,64.73,33.74,30.33,76.68,50.81,118.86,66.5,37.26,13.86,82.12,29.13,122.57,24.42,45.31-5.28,86.69-33.95,122.83-59.73,19.45-13.88,38.37-28.47,57.58-42.69,17.82-13.18,36.42-24.55,54.94-36.62,47.45-30.92,84.71-74.65,121.34-117.18,35.13-40.79,72.72-76.71,120.95-101.77,26.28-13.66,54.62-24.38,83.58-30.75,30.11-6.62,61.83-5.01,92.12-.47,45.84,6.87,90.09,21.09,132.12,40.42,81.44,37.45,158.6,84.2,236.66,128.07,74.05,41.62,149.17,85.74,229.49,114.33,13.81,4.92,27.87,9.21,42.26,12.09,1.57,.31,2.24-2.09,.66-2.41-34.14-6.83-66.82-20.81-98.31-35.28-40.8-18.74-80.49-39.85-119.85-61.42-82.24-45.08-162.72-93.51-246.2-136.29-32.1-16.45-64.77-32.23-99.12-43.42-52.44-17.08-112.27-29.74-167.28-18.71-52.29,10.49-102.56,35.48-144.14,68.58-42.75,34.03-74.57,79-111.96,118.41-20.7,21.82-42.8,42.57-67.63,59.65-18.57,12.77-38.03,23.83-56.26,37.19-40.31,29.55-79.31,61.84-123.87,84.96-20.82,10.8-43.74,20.13-67.47,21.16-20.48,.89-41.53-3.58-61.29-8.45-48.16-11.87-95.77-31-137.7-57.64-29.17-18.53-50.52-40.97-68.96-69.71-19.35-30.17-37.19-61.31-55.14-92.32-43.52-75.15-85.81-151.41-134.45-223.42-18.99-28.12-39.37-59.66-67.97-78.9-34.3-23.07-73.31-21.99-112.09-13.58-44.29,9.6-86.96,27.01-127.64,46.68-41.6,20.12-82.01,43.36-119.44,70.51-14.26,10.34-28.09,21.31-40.89,33.42-1.17,1.11,.6,2.87,1.77,1.77h0Z"/><path class="cls-9" d="M34.14,382.44c31.58-26.58,67.97-47.53,104.78-65.94,41.94-20.98,85.8-38.74,131.02-51.28,36.25-10.05,76.85-19.15,114.51-12.14,41.36,7.7,68.23,35.38,92.54,67.14,47.26,61.74,87.37,129.12,128.26,195.13,19.65,31.72,39.17,63.52,59.4,94.88,13.1,20.31,26.02,41.81,42.45,59.68,26.85,29.2,65.08,48.05,101.09,63.23,38.73,16.33,79.55,29.17,121.02,36.29,16.57,2.85,33.6,5.14,50.38,3.01,19.03-2.41,37.34-9.03,54.81-16.75,43.78-19.35,83.41-46.66,124.87-70.29,20.67-11.79,42.76-20.76,63.28-32.78,22.13-12.96,42.73-28.38,62.36-44.83,38.59-32.33,72.26-70.27,115.67-96.48,45.96-27.75,101.98-48.61,155.98-50.98,52.85-2.32,107.13,9.37,157.28,25.32,81.61,25.95,159.27,64.29,237.71,98.27,75.92,32.88,154.61,68.64,236.7,82.71,14.33,2.46,28.82,4.02,43.38,3.9,1.61-.01,1.61-2.51,0-2.5-35.64,.3-71.09-8.8-104.94-19.12-41.72-12.71-82.41-28.68-122.67-45.39-82.85-34.37-163.74-73.62-247.61-105.51-41.65-15.84-84.39-28.3-128.47-35.27-25.87-4.09-52.28-6.43-78.46-4.5-26.55,1.96-52.91,9.04-78.04,17.59-45.6,15.52-88.24,39.48-123.98,71.9-40.29,36.55-78.86,75.03-126.16,102.73-19.69,11.53-40.87,20.12-60.74,31.34-20.98,11.85-41.38,24.67-62.11,36.95-38.58,22.86-82.81,50.45-128.98,52.04-38.27,1.31-78.9-11.18-114.83-22.97-42.85-14.06-86.27-32.17-122.66-59.26-22.87-17.03-38.45-39.09-54.02-62.56-19.42-29.25-37.85-59.17-56.34-89.01-42.31-68.26-83.68-137.56-130.94-202.57-17.31-23.81-35.67-49.94-60.82-66.06-33.14-21.24-71.32-22.49-109.08-16.82-43.94,6.61-86.79,20.87-127.79,37.67-41.07,16.83-81.13,36.78-118.5,60.78-14.62,9.39-28.81,19.47-42.11,30.67-1.23,1.04,.54,2.8,1.77,1.77h0Z"/><path class="cls-9" d="M25.89,370.63c32.96-24.66,70.35-43.36,108.25-59.12,41.15-17.11,83.96-30.87,127.66-39.78,35.81-7.3,74.6-12.86,110.91-5.75,23.41,4.58,46.04,14.37,63.55,30.81,8.33,7.82,15.9,16.47,23.23,25.23,45.94,54.88,84.91,115.88,124.54,175.35,33.56,50.36,65.22,103.6,103.93,150.27,20.58,24.81,49.49,41.37,78.24,55.01,36.4,17.27,74.93,30.24,113.91,40.25,31.03,7.97,65.56,17.04,97.91,14.87,41.49-2.78,81.54-22.36,118.82-39.28,22.32-10.13,44.49-20.66,67.23-29.82,21.27-8.57,43.22-15.03,64.11-24.58,44.14-20.19,82.67-48.55,122.64-75.6,41.68-28.21,90.06-45.24,139.1-55.35,55.55-11.44,109.32-7.72,164.81,2.49,85.13,15.66,167.08,44.78,249.86,69.38,78.66,23.38,161.87,48.61,244.76,47.37,15.63-.23,31.22-1.72,46.5-5.07,1.57-.34,.91-2.76-.66-2.41-36.68,8.04-75.1,5.45-111.99,.21-43.4-6.16-86.14-16.65-128.36-28.27-83.84-23.07-165.92-52.75-250.45-73.28-47.19-11.46-96.28-20.55-144.97-20.84-50.46-.3-102.81,12.65-149.34,31.63-41.98,17.13-76.43,44.44-114.1,68.91-21.09,13.7-42.88,26.4-65.66,37.09s-48.61,18.28-72.66,28.26c-42.63,17.68-83.55,39.62-127.27,54.66-19.94,6.86-41.09,12.76-62.35,12.23-15.45-.39-30.95-2.99-46.11-5.82-39.52-7.38-78.51-18.58-116.07-32.9s-74.57-30.77-103.47-57.44c-17.7-16.33-31.24-37.54-44.9-57.19-19.47-28-38.29-56.45-57.18-84.84-40.42-60.74-80.21-122.33-125.18-179.86-16.14-20.65-33.24-43.15-56.06-56.82-32.43-19.42-70.5-22.17-107.29-18.92-83.21,7.36-167.83,37.04-240.74,77.19-16.08,8.86-31.7,18.56-46.41,29.57-1.27,.95-.03,3.12,1.26,2.16h0Z"/><path class="cls-9" d="M17.89,358.63c68.61-45.62,154.52-69.73,235.59-80.04,34.71-4.41,70.98-6.64,105.57-.09,22.14,4.19,45.01,11.52,62.65,26.04,7.67,6.32,14.61,13.53,21.33,20.83,85.31,92.6,147.28,204.16,226.94,301.27,39.89,48.62,104.87,71,163.31,88.43,33.96,10.13,68.64,18.39,103.68,23.76,12.2,1.87,24.6,3.67,36.96,3.9,18.38,.34,36.83-3.31,54.63-7.53,45.34-10.75,89.13-27.11,134.21-38.85,24.43-6.36,49.05-11.25,73.12-19.03,22-7.11,43.56-15.51,64.75-24.72,17.7-7.7,34.92-16.43,52.56-24.24,21.54-9.52,44.17-16.49,67.07-21.9,50.33-11.9,102.65-18.28,154.35-15.31,94.28,5.42,186.96,26.65,280.04,41.16,83.22,12.97,171.64,24.92,255.1,7.47,17.27-3.61,34.12-8.77,50.32-15.78,1.47-.64,.2-2.79-1.26-2.16-79.22,34.26-173.02,25.61-256.31,14.83-88.78-11.48-176.32-30.81-265.16-41.94-53.12-6.66-104.66-8.79-157.82-1.58-44.04,5.97-88.27,15.44-129,33.68-41.07,18.39-81.17,37.74-124.37,50.92-23.82,7.27-48.27,11.82-72.28,18.37s-46.12,13.66-69.11,20.69c-38.09,11.66-79.24,26.1-119.65,22.92-31.45-2.48-62.75-9.16-93.31-16.75-38.13-9.47-75.94-21.25-111.97-37-28.77-12.58-58.69-27.8-79.94-51.52-38.16-42.62-69.7-92.03-102.97-138.43-38.52-53.71-76.66-108.27-119.76-158.48-15.26-17.78-31.29-36.33-52.58-46.97-33.34-16.65-71.8-19.64-108.47-18.15-79.1,3.21-160.37,23.83-231.93,57.52-16.44,7.74-32.41,16.46-47.55,26.53-1.33,.89-.08,3.05,1.26,2.16h0Z"/><path class="cls-9" d="M9.89,346.63c70.23-41.42,156.61-57.23,237.14-60.74,36.73-1.6,74.11-.52,110.1,7.51,17.62,3.93,36.28,9.11,51.17,19.73,7.95,5.67,15.08,12.55,21.98,19.43,43.43,43.31,80.71,93.22,118.28,141.53,36.12,46.44,70.9,94.26,109.33,138.85,38.71,44.92,98.84,65.36,154.13,81.79,33.72,10.02,68.06,18.13,102.67,24.4,26.14,4.74,52.91,9.33,79.56,8.2,42.03-1.79,83.81-10.16,125.31-16.51,50.49-7.73,101.26-12.44,151.43-22.28,40.42-7.93,80.19-19.3,121.06-24.73,49.89-6.63,101.14-9.45,151.45-8.47,92.57,1.8,184.74,12.5,277.41,12.64,84.57,.13,172.57-6.38,251.29-39.73,18.03-7.64,35.34-16.78,51.76-27.44,1.34-.87,.09-3.04-1.26-2.16-73.61,47.78-163.27,62.07-249.43,65.8-90.02,3.89-180.18-3.51-269.98-8.94-93.88-5.67-187.9-2.1-279.7,19.16-47.61,11.02-95.59,20.05-144.17,25.5-47.15,5.29-93.78,14.17-140.8,20.37-32.26,4.25-62.95,5.4-95.13,.78s-62.67-11.01-93.47-18.77c-36.12-9.11-72.02-20.02-106.33-34.63-27.23-11.6-55.52-25.61-75.93-47.6-37.35-40.25-69.39-85.97-102.95-129.32-39.08-50.49-77.84-101.9-121.52-148.56-13.86-14.8-28.43-30.44-47.09-39.1-32.21-14.95-69.73-19.01-104.89-20.22-78.82-2.71-161.6,9.21-235.09,38.29-16.43,6.5-32.38,14.08-47.6,23.06-1.38,.82-.13,2.98,1.26,2.16h0Z"/><path class="cls-9" d="M1.89,334.63c78.09-40.78,173.17-45.55,259.45-39.5,34.52,2.42,69.33,6.7,102.91,15.3,21.29,5.45,36.6,13.67,52.94,28.4,52.43,47.27,96.95,104.15,142.1,158.17,22.45,26.86,44.71,53.88,67.51,80.44,17.1,19.93,33.62,39.42,56.25,53.29,31.42,19.26,67.06,31.77,102.17,42.39,38.32,11.6,77.45,20.6,116.82,27.84,27.26,5.02,54.84,9.62,82.53,11.48,31.9,2.14,63.98,2.07,95.93,2.1,77.13,.08,154.25-1.81,231.39-1.94,70.33-.13,140.54,5.26,210.81,7.4,173.76,5.28,362.03-3.96,512.02-102.05,18.74-12.26,36.55-25.82,53.44-40.51,1.22-1.06-.56-2.82-1.77-1.77-142.21,123.63-338.11,145.08-519.28,142.81-76.13-.96-152.07-7.02-228.18-8.23-71.25-1.14-142.59,1.22-213.84,1.67-63.22,.4-126.79,1.84-189.45-7.78-76.31-11.71-155.75-28.55-225.81-61.87-26.89-12.79-48.21-28.95-67.82-51.13-21.1-23.87-41.38-48.48-61.79-72.95-47.17-56.55-93.59-114.63-145.94-166.56-13.93-13.82-29.02-29.71-47.7-36.94-25.34-9.81-53.32-13.97-80.1-17.52-82.45-10.93-170.59-10.66-250.83,13.23-18.99,5.65-37.44,12.89-55.01,22.06-1.43,.75-.16,2.9,1.26,2.16h0Z"/></g></svg>